<?xml version="1.0" standalone="no"?>
<!DOCTYPE svg PUBLIC "-//W3C//DTD SVG 1.1//EN" "http://www.w3.org/Graphics/SVG/1.1/DTD/svg11.dtd" >
<svg>
<metadata>
Created by FontForge 20120731 at Sun Aug  7 14:15:31 2016
 By www
Copyright (c) 2000 Henrik Kubel,  Acme Fonts,. All rights reserved.
</metadata>
<defs>
<font id="AFKlampenborg-Medium" horiz-adv-x="445" >
  <font-face 
    font-family="AFKlampenborg"
    font-weight="500"
    font-stretch="normal"
    units-per-em="1000"
    panose-1="0 0 0 0 0 0 0 0 0 0"
    ascent="800"
    descent="-200"
    x-height="491"
    cap-height="682"
    bbox="-55 -195 1210 912"
    underline-thickness="20"
    underline-position="-123"
    stemh="71"
    stemv="78"
    unicode-range="U+0020-FB02"
  />
<missing-glyph horiz-adv-x="1000" 
 />
    <glyph glyph-name=".notdef" horiz-adv-x="1000" 
 />
    <glyph glyph-name="space" unicode=" " horiz-adv-x="250" 
 />
    <glyph glyph-name="exclam" unicode="!" horiz-adv-x="203" 
d="M153 157h-72l-31 98v427h103v-525zM153 0h-102v102h102v-102z" />
    <glyph glyph-name="quotedbl" unicode="&#x22;" horiz-adv-x="370" 
d="M320 683l-41 -215h-72v215h113zM162 683l-41 -215h-71v215h112z" />
    <glyph glyph-name="numbersign" unicode="#" horiz-adv-x="831" 
d="M781 492l-26 -97h-148l-32 -150h163l-26 -97h-158l-33 -148h-101l33 148h-150l-33 -148h-101l32 148h-151l26 97h146l33 150h-162l26 97h157l41 190h101l-41 -190h150l41 190h101l-41 -190h153zM506 395h-150l-32 -150h149z" />
    <glyph glyph-name="dollar" unicode="$" horiz-adv-x="439" 
d="M404 222l-1 -91c0 -85 -70 -123 -146 -136v-102h-82v97c-46 1 -103 7 -155 29l33 95c49 -22 90 -31 131 -31c37 0 114 -2 114 72v55c0 30 -4 40 -37 56l-154 77c-53 27 -80 65 -80 125v74c0 86 68 131 148 144v97h82v-93c48 -2 91 -10 133 -21l-26 -96
c-59 19 -87 22 -129 22s-104 -17 -104 -67v-35c0 -29 1 -46 32 -61l180 -90c47 -23 61 -65 61 -120z" />
    <glyph glyph-name="percent" unicode="%" horiz-adv-x="880" 
d="M830 144c0 -104 -68 -153 -166 -153c-99 0 -166 49 -166 153v28c0 105 67 154 166 154c98 0 166 -49 166 -154v-28zM728 147v22c0 53 -24 71 -63 71c-40 0 -65 -19 -65 -71v-22c0 -52 25 -70 65 -70c39 0 63 18 63 70zM619 682l-262 -682h-105l263 682h104zM382 510
c0 -104 -68 -153 -167 -153c-98 0 -165 49 -165 153v28c0 105 67 154 165 154c99 0 167 -49 167 -154v-28zM280 513v22c0 52 -24 70 -64 70c-39 0 -64 -18 -64 -70v-22c0 -52 25 -70 64 -70c40 0 64 18 64 70z" />
    <glyph glyph-name="ampersand" unicode="&#x26;" horiz-adv-x="624" 
d="M574 39l-80 -65l-56 70c-55 -39 -113 -54 -177 -54c-128 0 -209 58 -211 173v42c-1 69 45 133 135 174l-33 47c-88 122 -29 265 129 265c49 0 99 -12 147 -40l-36 -86c-44 24 -74 33 -102 33c-37 0 -62 -15 -69 -37c-9 -27 -1 -60 42 -116zM375 127l-135 173
c-68 -34 -82 -59 -82 -102v-28c0 -60 46 -86 106 -86c45 0 83 18 111 43z" />
    <glyph glyph-name="quoteright" unicode="&#x2019;" horiz-adv-x="202" 
d="M152 579l-65 -110l-36 21l23 89h-24v102h102v-102z" />
    <glyph glyph-name="parenleft" unicode="(" horiz-adv-x="269" 
d="M219 -103l-28 -83c-115 22 -166 81 -166 204v475c0 118 50 183 166 205l28 -83c-72 -30 -91 -53 -91 -110v-496c0 -58 22 -85 91 -112z" />
    <glyph glyph-name="parenright" unicode=")" horiz-adv-x="269" 
d="M244 18c0 -123 -51 -182 -167 -204l-27 83c69 27 91 54 91 112v496c0 57 -19 80 -91 110l27 83c117 -22 167 -87 167 -205v-475z" />
    <glyph glyph-name="asterisk" unicode="*" horiz-adv-x="502" 
d="M452 496l-135 -49l101 -115l-71 -58l-95 120l-97 -120l-71 58l101 115l-135 49l30 77l129 -41l-4 150h92l-4 -150l130 41z" />
    <glyph glyph-name="plus" unicode="+" horiz-adv-x="546" 
d="M496 261h-177v-178h-92v178h-177v91h177v178h92v-178h177v-91z" />
    <glyph glyph-name="comma" unicode="," horiz-adv-x="202" 
d="M152 0l-65 -110l-36 21l23 89h-24v102h102v-102z" />
    <glyph glyph-name="hyphen" unicode="-" horiz-adv-x="367" 
d="M317 352v-91h-267v91h267z" />
    <glyph glyph-name="period" unicode="." horiz-adv-x="202" 
d="M152 0h-102v102h102v-102z" />
    <glyph glyph-name="slash" unicode="/" horiz-adv-x="467" 
d="M417 682l-262 -682h-105l263 682h104z" />
    <glyph glyph-name="zero" unicode="0" horiz-adv-x="519" 
d="M469 146c0 -106 -108 -156 -209 -156s-210 50 -210 156v383c0 106 112 162 209 162s210 -56 210 -162v-383zM365 157v360c0 49 -56 81 -105 81s-106 -32 -106 -81v-360c0 -65 80 -75 106 -75s105 10 105 75z" />
    <glyph glyph-name="one" unicode="1" horiz-adv-x="461" 
d="M411 0h-361v91h129v501h-121l20 90l205 -1v-590h128v-91z" />
    <glyph glyph-name="two" unicode="2" horiz-adv-x="472" 
d="M422 91l-14 -91h-358v139c0 61 24 93 55 120l151 132c37 32 44 44 42 96v26c-1 49 -25 81 -102 81c-49 0 -98 -17 -129 -34l-12 96c40 21 101 36 155 36c110 0 188 -51 190 -173v-39c1 -38 0 -80 -19 -109c-14 -20 -35 -35 -53 -51l-138 -120c-32 -28 -36 -47 -36 -76
v-33h268z" />
    <glyph glyph-name="three" unicode="3" horiz-adv-x="483" 
d="M433 162c0 -122 -108 -172 -219 -172c-36 0 -107 12 -164 44l39 87c27 -18 72 -33 116 -35c63 -3 124 20 123 91v38c0 71 -79 97 -155 97v87c70 0 142 33 141 85v31c-1 54 -43 85 -106 85c-32 0 -82 -10 -125 -28l-19 91c60 21 121 29 156 29c114 0 198 -56 198 -175v-22
c0 -34 -7 -102 -70 -134c65 -27 85 -88 85 -125v-74z" />
    <glyph glyph-name="four" unicode="4" horiz-adv-x="558" 
d="M508 287l-19 -86l-61 -1v-200h-100v200h-278v88l278 394h100v-395h80zM328 288v277l-11 -55l-140 -207l-40 -15h191z" />
    <glyph glyph-name="five" unicode="5" horiz-adv-x="482" 
d="M432 163c0 -122 -105 -173 -215 -173c-65 0 -118 11 -167 30l28 94c43 -21 98 -33 129 -33c66 0 122 21 122 87v96c0 58 -36 81 -88 81c-35 0 -72 -14 -107 -29l-49 57v309h331v-71l-89 -18h-142l1 -164c21 6 48 9 71 9c101 0 174 -53 174 -145z" />
    <glyph glyph-name="six" unicode="6" horiz-adv-x="492" 
d="M442 154c0 -116 -87 -164 -192 -164c-104 0 -199 45 -199 164l-1 348c0 124 91 189 198 189c64 0 113 -11 170 -42l-39 -86c-42 24 -90 38 -121 38c-69 0 -102 -36 -102 -98l-1 -80c43 20 94 28 116 28c105 0 171 -53 171 -169v-128zM340 147v141c0 50 -31 69 -74 69
c-27 0 -75 -9 -111 -35v-175c0 -51 55 -71 95 -71c42 0 90 20 90 71z" />
    <glyph glyph-name="seven" unicode="7" horiz-adv-x="485" 
d="M435 681v-72l-228 -609h-86v78l211 514h-282v90z" />
    <glyph glyph-name="eight" unicode="8" horiz-adv-x="508" 
d="M458 155c0 -119 -102 -165 -204 -165c-103 0 -204 46 -204 165v45c0 62 7 126 84 159c-64 26 -78 100 -78 128v30c0 117 93 175 198 175s198 -58 198 -175v-32c0 -57 -29 -106 -80 -124c86 -32 86 -120 86 -152v-54zM347 488v31c0 48 -39 81 -93 81
c-55 0 -93 -33 -93 -81v-31c0 -49 49 -80 93 -80c43 0 93 31 93 80zM353 160v65c0 50 -46 85 -99 85c-52 0 -99 -35 -99 -85v-65c0 -51 47 -77 99 -77s99 29 99 77z" />
    <glyph glyph-name="nine" unicode="9" horiz-adv-x="490" 
d="M440 169c0 -120 -91 -179 -205 -179c-54 0 -110 9 -177 42l38 89c45 -26 94 -41 131 -41c63 0 109 25 109 93v77c-50 -27 -108 -29 -147 -26c-73 8 -139 59 -139 155v143c0 117 89 169 193 169s196 -46 197 -164v-358zM336 534c0 51 -51 70 -92 70c-43 0 -93 -26 -93 -76
v-135c0 -45 17 -62 41 -71c35 -13 94 -7 144 25v187z" />
    <glyph glyph-name="colon" unicode=":" horiz-adv-x="202" 
d="M152 389h-102v102h102v-102zM152 0h-102v102h102v-102z" />
    <glyph glyph-name="semicolon" unicode=";" horiz-adv-x="202" 
d="M152 389h-102v102h102v-102zM152 0l-65 -110l-36 21l23 89h-24v102h102v-102z" />
    <glyph glyph-name="less" unicode="&#x3c;" horiz-adv-x="563" 
d="M513 0h-143l-320 316v45l320 321h143l-338 -344z" />
    <glyph glyph-name="equal" unicode="=" horiz-adv-x="526" 
d="M476 369h-426v91h426v-91zM476 153h-426v90h426v-90z" />
    <glyph glyph-name="greater" unicode="&#x3e;" horiz-adv-x="563" 
d="M513 316l-319 -316h-144l339 338l-339 344h144l319 -321v-45z" />
    <glyph glyph-name="question" unicode="?" horiz-adv-x="457" 
d="M407 466c1 -86 -52 -120 -112 -170c-27 -22 -36 -37 -36 -72v-61h-102v71c0 44 10 85 51 120l44 37c55 46 52 52 52 120c-1 66 -43 83 -103 83c-39 0 -89 -20 -117 -37l-34 91c42 22 90 43 163 43c109 0 192 -49 193 -172zM259 0h-102v102h102v-102z" />
    <glyph glyph-name="at" unicode="@" horiz-adv-x="806" 
d="M756 385c0 -113 -64 -194 -143 -220c-41 -13 -103 -11 -136 31c-42 -37 -104 -46 -136 -43c-88 8 -122 72 -111 133c0 0 12 78 21 118c15 72 51 122 138 122c20 0 51 -7 87 -31l1 14h94l-32 -224c-6 -43 18 -47 30 -47c39 0 94 61 94 147c0 148 -100 231 -247 231
s-272 -109 -272 -274c0 -173 125 -267 271 -267c56 0 127 6 203 62l69 -59c-96 -82 -192 -88 -271 -88c-211 0 -366 128 -366 355c0 207 168 360 366 360c197 0 340 -124 340 -320zM462 414c-10 9 -33 29 -69 29c-23 0 -43 -12 -48 -40l-19 -102c-10 -50 16 -64 37 -64
c97 0 91 120 99 177z" />
    <glyph glyph-name="A" unicode="A" horiz-adv-x="511" 
d="M486 78v-78h-91l-60 215h-166l-55 -215h-104l188 680h105zM309 307l-52 186v73l-65 -259h117z" />
    <glyph glyph-name="B" unicode="B" horiz-adv-x="495" 
d="M460 160c0 -122 -119 -159 -187 -159l-223 -1v682h205c111 0 190 -55 190 -162v-30c0 -35 -18 -97 -70 -128c63 -24 85 -92 85 -124v-78zM334 489v25c0 37 -16 75 -92 75l-89 1v-190l84 -1c56 0 97 26 97 90zM351 177v43c0 44 -26 89 -109 89h-89v-218h98
c73 0 100 41 100 86z" />
    <glyph glyph-name="C" unicode="C" horiz-adv-x="439" 
d="M419 27c-67 -29 -138 -37 -174 -37c-106 0 -210 34 -210 159v356c0 122 100 186 210 186c57 0 107 -12 164 -39l-37 -89c-32 18 -81 34 -117 34c-65 0 -116 -29 -116 -95v-346c0 -47 32 -76 109 -76c29 0 81 8 145 38z" />
    <glyph glyph-name="D" unicode="D" horiz-adv-x="492" 
d="M457 180c0 -123 -85 -179 -194 -179l-213 -1v682h203c108 0 204 -57 204 -181v-321zM353 177v318c0 44 -28 98 -101 97h-98v-501h98c73 0 101 41 101 86z" />
    <glyph glyph-name="E" unicode="E" horiz-adv-x="471" 
d="M436 91l-13 -91h-373v681h384l-13 -90h-296l27 -21v-170h222v-89h-222v-220h284z" />
    <glyph glyph-name="F" unicode="F" 
d="M435 681l-13 -90h-296l27 -21v-170h222v-89h-222v-311h-103v681h385z" />
    <glyph glyph-name="G" unicode="G" horiz-adv-x="483" 
d="M433 0h-37l-12 14c-55 -19 -109 -24 -139 -24c-106 0 -210 34 -210 159v356c0 122 100 186 210 186c57 0 107 -12 164 -39l-37 -89c-32 18 -81 34 -117 34c-65 0 -116 -29 -116 -95v-346c0 -47 32 -76 109 -76c19 0 48 4 83 14v176h-89v93h191v-363z" />
    <glyph glyph-name="H" unicode="H" horiz-adv-x="544" 
d="M494 681v-681h-101l-1 311h-239l-1 -311h-102v680h103v-280h238v280z" />
    <glyph glyph-name="I" unicode="I" horiz-adv-x="387" 
d="M347 0h-306v91h101v501h-102v90h307v-90h-100v-501h100v-91z" />
    <glyph glyph-name="J" unicode="J" horiz-adv-x="444" 
d="M394 156c0 -126 -98 -166 -203 -166c-60 0 -115 7 -166 33l28 90c46 -22 91 -33 134 -33c84 0 103 45 103 90v422h-256v90h360v-526z" />
    <glyph glyph-name="K" unicode="K" horiz-adv-x="495" 
d="M495 0h-133l-209 309v-309h-103v681l103 -1v-291l256 292h50v-100l-209 -233z" />
    <glyph glyph-name="L" unicode="L" horiz-adv-x="417" 
d="M397 91l-13 -91h-334v682h103v-591h244z" />
    <glyph glyph-name="M" unicode="M" horiz-adv-x="716" 
d="M666 681v-681h-104v451l17 65l-193 -320h-57l-200 320l18 -69v-447h-97v681h92l222 -359l220 360z" />
    <glyph glyph-name="N" unicode="N" horiz-adv-x="597" 
d="M547 680v-680h-99l-317 525l18 -84v-441h-99l1 680h87l324 -525l-16 85v440h101z" />
    <glyph glyph-name="O" unicode="O" horiz-adv-x="489" 
d="M454 146c0 -106 -108 -156 -209 -156s-210 50 -210 156v383c0 106 112 162 209 162s210 -56 210 -162v-383zM350 157v360c0 49 -56 81 -105 81s-106 -32 -106 -81v-360c0 -65 80 -75 106 -75s105 10 105 75z" />
    <glyph glyph-name="P" unicode="P" horiz-adv-x="482" 
d="M447 445c1 -116 -104 -167 -187 -168h-107v-277h-103v682h225c99 0 171 -69 172 -176v-61zM343 465v34c0 69 -44 93 -94 93h-96v-223h83c56 -1 107 24 107 96z" />
    <glyph glyph-name="Q" unicode="Q" horiz-adv-x="519" 
d="M469 146c0 -86 -72 -136 -153 -151l56 -101l-99 -35l-59 135c-86 13 -164 62 -164 152v383c0 106 112 162 209 162s210 -56 210 -162v-383zM365 157v360c0 49 -56 81 -105 81s-106 -32 -106 -81v-360c0 -65 80 -75 106 -75s105 10 105 75z" />
    <glyph glyph-name="R" unicode="R" horiz-adv-x="490" 
d="M465 0h-80l-178 279h-53v-279h-103l-1 682h226c98 0 173 -62 173 -169v-68c0 -80 -49 -145 -130 -158l146 -212v-75zM346 454v40c0 71 -39 97 -86 97h-105l-1 -221l98 -1c58 0 94 23 94 85z" />
    <glyph glyph-name="S" unicode="S" horiz-adv-x="439" 
d="M404 222l-1 -91c0 -110 -119 -141 -214 -141c-48 0 -111 5 -169 29l33 95c49 -22 90 -31 131 -31c37 0 114 -2 114 72v55c0 30 -4 40 -37 56l-154 77c-53 27 -80 65 -80 125v74c0 106 103 149 205 149c58 0 109 -9 158 -22l-26 -97c-59 19 -91 23 -133 23
s-100 -17 -100 -67v-35c0 -29 1 -46 32 -61l180 -90c47 -23 61 -65 61 -120z" />
    <glyph glyph-name="T" unicode="T" horiz-adv-x="459" 
d="M449 591h-168v-591h-104v591h-167v89h438z" />
    <glyph glyph-name="U" unicode="U" horiz-adv-x="520" 
d="M470 681l-1 -533c0 -106 -108 -158 -209 -158s-210 52 -210 158v534h104v-520c0 -65 80 -80 106 -80s108 15 108 80l1 519h101z" />
    <glyph glyph-name="V" unicode="V" horiz-adv-x="441" 
d="M436 680l-163 -680h-98l-170 680h110l98 -423v-106l117 530z" />
    <glyph glyph-name="W" unicode="W" horiz-adv-x="721" 
d="M716 680l-163 -680h-98l-100 421v-77l-82 -344h-99l-169 680h110l98 -423v-106l96 432l-24 97h105l103 -420v-109l117 530z" />
    <glyph glyph-name="X" unicode="X" horiz-adv-x="466" 
d="M466 0h-121l-129 268v-40l-108 -228h-108l170 350l-166 331h117l101 -208v-38l113 245l115 1l-162 -324z" />
    <glyph glyph-name="Y" unicode="Y" horiz-adv-x="446" 
d="M446 681l-162 -419l1 -262h-105l-1 262l-179 419h119l103 -260l1 -46l113 305z" />
    <glyph glyph-name="Z" unicode="Z" horiz-adv-x="498" 
d="M463 91l-19 -91h-399v77l261 515h-271l14 89h373v-89l-261 -501h302z" />
    <glyph glyph-name="bracketleft" unicode="[" horiz-adv-x="295" 
d="M270 591h-118v-679h118l-25 -93h-195v864h195z" />
    <glyph glyph-name="backslash" unicode="\" horiz-adv-x="467" 
d="M417 0h-104l-263 682h105z" />
    <glyph glyph-name="bracketright" unicode="]" horiz-adv-x="295" 
d="M245 -181h-195l-25 93h118v679h-118l25 92h195v-864z" />
    <glyph glyph-name="asciicircum" unicode="^" horiz-adv-x="405" 
d="M355 537l-77 -1l-75 87l-75 -87h-78l100 152h105z" />
    <glyph glyph-name="underscore" unicode="_" horiz-adv-x="546" 
d="M496 -51v-91h-446v91h446z" />
    <glyph glyph-name="quoteleft" unicode="&#x2018;" horiz-adv-x="202" 
d="M152 469h-102v102l65 110l36 -21l-23 -89h24v-102z" />
    <glyph glyph-name="a" unicode="a" 
d="M395 0h-56l-27 17c-46 -23 -92 -27 -121 -27c-83 0 -156 25 -156 144v37c0 98 84 143 158 143l97 -1v35c0 56 -46 62 -84 62c-47 0 -89 -13 -110 -23l-24 86c39 16 101 30 150 30c94 0 173 -42 173 -141v-362zM290 102v120l-81 -1c-48 0 -68 -21 -68 -60v-31
c-1 -76 108 -54 149 -28z" />
    <glyph glyph-name="b" unicode="b" horiz-adv-x="458" 
d="M423 358l-1 -213c0 -113 -79 -155 -184 -155c-57 0 -107 3 -188 21v722h76l27 -111v-144c38 20 81 25 103 25c62 0 167 -17 167 -145zM319 157l-1 189c0 95 -114 73 -165 35v-289c85 -21 166 -8 166 65z" />
    <glyph glyph-name="c" unicode="c" horiz-adv-x="409" 
d="M379 19c-53 -20 -105 -29 -152 -29c-105 0 -192 35 -192 158v177c0 124 82 176 187 176c52 0 115 -16 153 -34l-37 -93c-80 34 -199 48 -199 -56v-144c0 -126 161 -83 216 -59z" />
    <glyph glyph-name="d" unicode="d" horiz-adv-x="463" 
d="M413 0h-57l-29 15c-29 -15 -88 -25 -120 -25c-87 0 -171 36 -172 149v198c0 132 98 164 176 164c18 0 63 -4 97 -19v252h75l30 -113v-621zM308 106v277c-57 37 -169 46 -169 -49v-182c-1 -54 37 -70 76 -70c15 0 54 4 93 24z" />
    <glyph glyph-name="e" unicode="e" horiz-adv-x="435" 
d="M400 328v-107h-263v-58c0 -49 15 -80 101 -80c36 0 83 13 127 34l26 -93c-52 -24 -117 -34 -163 -34c-105 0 -193 33 -193 157v191c0 111 75 165 184 165c148 0 181 -81 181 -175zM299 313l-1 35c0 44 -28 71 -79 71c-49 0 -83 -26 -82 -71v-35h162z" />
    <glyph glyph-name="f" unicode="f" horiz-adv-x="327" 
d="M362 719l-19 -89c-86 37 -150 29 -150 -49v-90h130l-12 -95h-118v-396h-104v396h-89v95h89v94c0 66 19 157 161 157c22 0 67 -6 112 -23z" />
    <glyph glyph-name="g" unicode="g" horiz-adv-x="452" 
d="M442 410h-67c11 -20 15 -45 15 -61v-51c0 -127 -95 -166 -198 -158l-21 -54h91c77 0 143 -34 143 -123c0 -104 -113 -141 -209 -141c-73 0 -136 25 -176 44l41 89c40 -22 82 -38 126 -38c80 0 108 25 108 48s-21 35 -49 35h-152l-36 58l49 106c-50 25 -71 79 -71 134v44
c0 116 76 161 180 161c31 0 50 -4 85 -13l141 15v-95zM286 298v45c0 49 -32 70 -73 70c-42 0 -73 -21 -73 -70v-45c0 -46 29 -69 74 -69s72 23 72 69z" />
    <glyph glyph-name="h" unicode="h" horiz-adv-x="474" 
d="M424 0h-104l1 359c0 86 -126 46 -167 12v-371h-103l-1 732h78l27 -115l-1 -150c28 20 85 34 119 34c83 0 151 -19 151 -139v-362z" />
    <glyph glyph-name="i" unicode="i" horiz-adv-x="203" 
d="M153 629h-103v104h103v-104zM153 0h-103v491h103v-491z" />
    <glyph glyph-name="j" unicode="j" horiz-adv-x="205" 
d="M155 629h-103v104h103v-104zM155 491v-498l-91 -188l-67 27l54 158l1 501h103z" />
    <glyph glyph-name="k" unicode="k" horiz-adv-x="434" 
d="M434 0h-124l-157 247l1 -247h-104v732h78l25 -115v-286l146 160h132l-186 -204z" />
    <glyph glyph-name="l" unicode="l" horiz-adv-x="287" 
d="M277 16c-47 -19 -82 -26 -116 -26c-109 0 -111 94 -111 108v518l26 117h77v-604c0 -49 46 -53 96 -25z" />
    <glyph glyph-name="m" unicode="m" horiz-adv-x="723" 
d="M673 0h-104v357c0 86 -115 46 -156 12v0v-10v-359h-104l1 357c0 86 -116 46 -157 12v-369h-103v491h66l27 -29c30 19 75 39 118 39c54 0 101 -9 128 -48c25 25 83 48 132 48c83 0 151 -22 151 -142z" />
    <glyph glyph-name="n" unicode="n" horiz-adv-x="472" 
d="M422 0h-104l1 357c0 86 -126 46 -167 12v-369h-102v491h65l27 -29c30 19 85 39 128 39c83 0 152 -22 152 -142v-359z" />
    <glyph glyph-name="o" unicode="o" horiz-adv-x="450" 
d="M415 152c0 -116 -85 -162 -190 -162c-106 0 -190 46 -190 162v191c0 116 84 160 190 160c105 0 190 -43 190 -159v-192zM311 152v185c0 48 -42 71 -86 71c-45 0 -86 -23 -86 -71v-185c0 -49 42 -69 86 -69c43 0 86 20 86 69z" />
    <glyph glyph-name="p" unicode="p" horiz-adv-x="449" 
d="M414 144c0 -115 -78 -155 -166 -155c-19 0 -62 3 -95 19v-107l-33 -81h-70v672h50l30 -22c38 25 84 33 114 33c81 0 170 -21 170 -153v-206zM310 340c0 97 -104 80 -157 43v-277c46 -34 156 -50 156 36z" />
    <glyph glyph-name="q" unicode="q" horiz-adv-x="449" 
d="M399 -180h-71l-33 81v105c-32 -10 -65 -16 -88 -16c-106 0 -172 40 -172 153v198c1 133 97 162 179 162c25 0 67 -7 101 -14l83 12zM294 396c-71 28 -156 22 -155 -54v-190c0 -52 27 -67 65 -67c16 0 61 5 90 19v292z" />
    <glyph glyph-name="r" unicode="r" horiz-adv-x="298" 
d="M293 489l-22 -103c-43 22 -93 19 -118 -15v-371h-103v491h53l27 -36c41 52 99 60 163 34z" />
    <glyph glyph-name="s" unicode="s" horiz-adv-x="396" 
d="M361 165v-28c0 -112 -90 -147 -181 -147c-60 0 -120 16 -155 35l31 89c53 -30 202 -57 202 17v11c0 22 -24 32 -40 40l-79 40c-58 29 -103 63 -103 129v14c0 86 68 136 171 136c34 0 99 -9 137 -24l-27 -96c-36 15 -155 44 -175 -5c-6 -16 -5 -39 21 -52l111 -57
c46 -23 87 -60 87 -102z" />
    <glyph glyph-name="t" unicode="t" horiz-adv-x="322" 
d="M297 397h-117l-1 -277c0 -49 59 -34 91 -7l26 -91c-44 -26 -81 -32 -113 -32c-86 0 -106 68 -106 133v274h-67v94h67v72l28 89h75v-161h117v-94z" />
    <glyph glyph-name="u" unicode="u" horiz-adv-x="463" 
d="M413 0h-57l-26 16c-46 -22 -96 -26 -125 -26c-84 0 -155 33 -155 151v350l104 1v-348c0 -80 86 -73 156 -41v388h103v-491z" />
    <glyph glyph-name="v" unicode="v" horiz-adv-x="407" 
d="M402 491l-147 -491h-92l-158 491l110 -1l82 -288v-67l99 356h106z" />
    <glyph glyph-name="w" unicode="w" horiz-adv-x="650" 
d="M645 491l-145 -491h-89l-93 304v-73l-68 -231h-89l-156 491h101l86 -290v-85l86 304l-23 71h104l83 -290v-86l103 377z" />
    <glyph glyph-name="x" unicode="x" horiz-adv-x="439" 
d="M429 491l-144 -236l127 -255h-118l-89 192l-1 -49l-85 -143h-119l145 236l-118 255h111l88 -200v57l83 143h120z" />
    <glyph glyph-name="y" unicode="y" horiz-adv-x="410" 
d="M410 491l-194 -671h-96l50 180h-24l-146 491h116l82 -299v-96l107 396z" />
    <glyph glyph-name="z" unicode="z" horiz-adv-x="382" 
d="M362 89l-14 -89h-323v69l202 339l-212 1l11 82h317v-72l-194 -330h213z" />
    <glyph glyph-name="braceleft" unicode="{" horiz-adv-x="316" 
d="M291 624c-54 -9 -75 -43 -75 -109v-174c0 -33 -11 -68 -34 -81c21 -16 34 -49 34 -82v-174c0 -65 18 -94 74 -110l-27 -81c-131 23 -150 90 -150 188l1 174c0 40 -51 61 -64 61v47c13 0 64 21 64 61l-1 174c0 99 14 154 149 189z" />
    <glyph glyph-name="bar" unicode="|" horiz-adv-x="204" 
d="M154 -158h-104v839h104v-839z" />
    <glyph glyph-name="braceright" unicode="}" horiz-adv-x="316" 
d="M266 236c-14 0 -64 -21 -64 -61l1 -174c0 -98 -20 -165 -150 -188l-28 81c56 16 74 45 75 110v174c0 33 12 66 34 82c-23 13 -34 48 -34 81v174c-1 66 -21 100 -75 109l28 83c136 -35 150 -90 150 -189l-1 -174c0 -40 50 -61 64 -61v-47z" />
    <glyph glyph-name="asciitilde" unicode="~" horiz-adv-x="394" 
d="M344 621c-18 -43 -51 -66 -90 -66c-22 0 -39 9 -55 18c-14 8 -29 17 -46 17c-14 0 -33 -4 -49 -31l-54 46c14 39 56 69 95 69c26 0 46 -10 63 -20c12 -6 30 -18 44 -18c13 0 26 8 44 35z" />
    <glyph glyph-name="exclamdown" unicode="&#xa1;" horiz-adv-x="203" 
d="M153 580h-102v102h102v-102zM153 525v-525h-103v427l31 98h72z" />
    <glyph glyph-name="cent" unicode="&#xa2;" horiz-adv-x="409" 
d="M379 19c-45 -17 -89 -26 -130 -28v-100h-58v101c-88 8 -156 47 -156 156v177c0 112 67 165 156 174v98h58v-97c45 -5 94 -18 126 -33l-37 -93c-80 34 -199 48 -199 -56v-144c0 -126 161 -83 216 -59z" />
    <glyph glyph-name="sterling" unicode="&#xa3;" horiz-adv-x="619" 
d="M569 90l-9 -90h-510v89h113v242h-64v89h64v96c0 123 80 176 189 176c35 0 83 -6 147 -26l-26 -91c-56 19 -90 25 -125 25c-69 0 -83 -47 -83 -93v-87h200l-11 -89h-189v-241h304z" />
    <glyph glyph-name="fraction" unicode="&#x2044;" horiz-adv-x="467" 
d="M417 682l-262 -682h-105l263 682h104z" />
    <glyph glyph-name="yen" unicode="&#xa5;" horiz-adv-x="577" 
d="M527 369h-151l-42 -107v-19h192v-90h-191v-153h-105l-1 153h-179v90h179v19l-46 107h-133v91h94l-94 221h119l103 -260l1 -46l113 305l110 1l-85 -221h116v-91z" />
    <glyph glyph-name="florin" unicode="&#x192;" horiz-adv-x="553" 
d="M503 712l-31 -95c-31 21 -68 30 -92 25c-22 -5 -44 -23 -50 -57l-17 -94h120l-12 -95h-126l-77 -418l-93 -141l-75 42l73 133l68 384h-91v95h108l17 96c16 90 65 143 139 155c46 7 105 -9 139 -30z" />
    <glyph glyph-name="section" unicode="&#xa7;" horiz-adv-x="460" 
d="M410 70v-49c0 -116 -100 -151 -196 -151c-55 0 -108 12 -159 32l27 91c53 -22 96 -31 123 -31c68 0 107 16 107 65v12c0 29 -28 41 -47 49l-100 48c-63 29 -101 67 -101 137v26c0 45 19 80 56 106c-46 30 -70 65 -70 121v26c0 91 77 140 187 140c35 0 85 -5 135 -18
l-21 -92c-40 11 -74 19 -111 19c-43 0 -79 -13 -88 -40c-6 -19 -7 -55 25 -71l129 -64c51 -25 90 -60 90 -103v-49c0 -51 -19 -87 -54 -113c42 -26 68 -56 68 -91zM298 280v12c0 38 -50 51 -77 62c-32 -8 -46 -20 -55 -46c-20 -61 36 -77 78 -97c29 11 54 30 54 69z" />
    <glyph glyph-name="currency" unicode="&#xa4;" horiz-adv-x="406" 
d="M356 312c0 -85 -69 -153 -153 -153c-85 0 -153 68 -153 153c0 84 68 152 153 152c84 0 153 -68 153 -152zM261 312c0 31 -26 57 -58 57s-58 -26 -58 -57c0 -32 26 -58 58 -58s58 26 58 58z" />
    <glyph glyph-name="quotedblleft" unicode="&#x201c;" horiz-adv-x="352" 
d="M302 469h-102v102l65 110l36 -21l-23 -89h24v-102zM152 469h-102v102l65 110l36 -21l-23 -89h24v-102z" />
    <glyph glyph-name="guillemotleft" unicode="&#xab;" horiz-adv-x="720" 
d="M670 0h-130l-227 224v43l227 224h130l-235 -246zM406 0h-130l-226 224v43l226 224h130l-235 -246z" />
    <glyph glyph-name="guilsinglleft" unicode="&#x2039;" horiz-adv-x="443" 
d="M393 252h-132l-211 193v44l211 192h132l-219 -215z" />
    <glyph glyph-name="guilsinglright" unicode="&#x203a;" horiz-adv-x="443" 
d="M393 445l-211 -193h-132l219 214l-219 215h132l211 -192v-44z" />
    <glyph glyph-name="fi" unicode="&#xfb01;" horiz-adv-x="562" 
d="M512 0h-106v396h-213v-396h-104v396h-89v95h89v94c0 66 19 157 161 157c22 0 67 -6 112 -23l-19 -89c-86 37 -150 29 -150 -49v-90h319v-491z" />
    <glyph glyph-name="fl" unicode="&#xfb02;" horiz-adv-x="644" 
d="M634 16c-47 -19 -82 -26 -116 -26c-109 0 -111 94 -111 108v298h-214v-396h-104v396h-89v95h89v94c0 66 19 157 161 157c22 0 67 -6 112 -23l-19 -89c-86 37 -150 29 -150 -49v-90h214l1 125l25 117h77v-604c0 -49 46 -53 96 -25z" />
    <glyph glyph-name="endash" unicode="&#x2013;" horiz-adv-x="367" 
d="M317 352v-91h-267v91h267z" />
    <glyph glyph-name="dagger" unicode="&#x2020;" horiz-adv-x="516" 
d="M466 369h-157v-527h-104v527h-155v91h155v221h104v-221h157v-91z" />
    <glyph glyph-name="daggerdbl" unicode="&#x2021;" horiz-adv-x="516" 
d="M466 153h-157v-311h-104v311h-155v90h155v126h-155v91h155v221h104v-221h157v-91h-157v-126h157v-90z" />
    <glyph glyph-name="periodcentered" unicode="&#xb7;" horiz-adv-x="227" 
d="M177 309c0 -35 -28 -64 -63 -64c-36 0 -64 29 -64 64s28 64 63 64c36 0 64 -29 64 -64z" />
    <glyph glyph-name="paragraph" unicode="&#xb6;" horiz-adv-x="560" 
d="M510 -138h-102v416h-91v-416h-102v416c-128 14 -165 99 -165 207c0 174 180 197 254 197h206v-820zM408 376v207h-91v-207h91z" />
    <glyph glyph-name="bullet" unicode="&#x2022;" horiz-adv-x="354" 
d="M304 309c0 -70 -57 -127 -127 -127s-127 57 -127 127s57 127 127 127s127 -57 127 -127z" />
    <glyph glyph-name="quotesinglbase" unicode="&#x201a;" horiz-adv-x="202" 
d="M152 0l-65 -110l-36 21l23 89h-24v102h102v-102z" />
    <glyph glyph-name="quotedblbase" unicode="&#x201e;" horiz-adv-x="352" 
d="M302 0l-65 -110l-36 21l23 89h-24v102h102v-102zM152 0l-65 -110l-36 21l23 89h-24v102h102v-102z" />
    <glyph glyph-name="quotedblright" unicode="&#x201d;" horiz-adv-x="352" 
d="M302 579l-65 -110l-36 21l23 89h-24v102h102v-102zM152 579l-65 -110l-36 21l23 89h-24v102h102v-102z" />
    <glyph glyph-name="guillemotright" unicode="&#xbb;" horiz-adv-x="730" 
d="M680 224l-226 -224h-130l235 245l-235 246h130l226 -224v-43zM417 224l-227 -224h-130l235 245l-235 246h130l227 -224v-43z" />
    <glyph glyph-name="ellipsis" unicode="&#x2026;" horiz-adv-x="502" 
d="M452 0h-102v102h102v-102zM302 0h-102v102h102v-102zM152 0h-102v102h102v-102z" />
    <glyph glyph-name="perthousand" unicode="&#x2030;" horiz-adv-x="1260" 
d="M1210 144c0 -104 -68 -153 -166 -153c-99 0 -166 49 -166 153v28c0 105 67 154 166 154c98 0 166 -49 166 -154v-28zM1108 147v22c0 53 -24 71 -63 71c-40 0 -65 -19 -65 -71v-22c0 -52 25 -70 65 -70c39 0 63 18 63 70zM830 144c0 -104 -68 -153 -166 -153
c-99 0 -166 49 -166 153v28c0 105 67 154 166 154c98 0 166 -49 166 -154v-28zM728 147v22c0 53 -24 71 -63 71c-40 0 -65 -19 -65 -71v-22c0 -52 25 -70 65 -70c39 0 63 18 63 70zM619 682l-262 -682h-105l263 682h104zM382 510c0 -104 -68 -153 -167 -153
c-98 0 -165 49 -165 153v28c0 105 67 154 165 154c99 0 167 -49 167 -154v-28zM280 513v22c0 52 -24 70 -64 70c-39 0 -64 -18 -64 -70v-22c0 -52 25 -70 64 -70c40 0 64 18 64 70z" />
    <glyph glyph-name="questiondown" unicode="&#xbf;" horiz-adv-x="457" 
d="M300 579h-102v102h102v-102zM407 33c-42 -22 -90 -43 -163 -43c-110 0 -192 49 -193 171l-1 54c-1 86 52 120 112 170c27 22 36 37 36 72v61h102v-71c0 -45 -10 -86 -51 -120l-44 -37c-55 -47 -52 -52 -52 -120c1 -66 43 -84 103 -84c39 0 89 21 117 38z" />
    <glyph glyph-name="grave" unicode="`" horiz-adv-x="309" 
d="M259 537l-78 -1l-131 152h109z" />
    <glyph glyph-name="acute" unicode="&#xb4;" horiz-adv-x="309" 
d="M259 688l-131 -152h-78l100 152h109z" />
    <glyph glyph-name="circumflex" unicode="&#x2c6;" horiz-adv-x="405" 
d="M355 719h-77l-75 86l-75 -86h-78l100 151h105z" />
    <glyph glyph-name="tilde" unicode="&#x2dc;" horiz-adv-x="394" 
d="M344 811l-48 50c-18 -27 -31 -35 -44 -35c-14 0 -32 12 -44 18c-17 10 -37 20 -63 20c-39 0 -81 -30 -95 -69l54 -46c16 27 35 31 49 31c17 0 32 -9 46 -17c16 -9 33 -18 55 -18c39 0 72 23 90 66z" />
    <glyph glyph-name="macron" unicode="&#xaf;" horiz-adv-x="391" 
d="M341 711h-291v78h291v-78z" />
    <glyph glyph-name="breve" unicode="&#x2d8;" horiz-adv-x="405" 
d="M355 870l-100 -151h-105l-100 151h78l75 -86l75 86h77z" />
    <glyph glyph-name="dotaccent" unicode="&#x2d9;" horiz-adv-x="243" 
d="M193 777c0 -41 -32 -74 -71 -74c-40 0 -72 33 -72 74s32 74 72 74c39 0 71 -33 71 -74z" />
    <glyph glyph-name="dieresis" unicode="&#xa8;" horiz-adv-x="347" 
d="M297 556h-87v90h87v-90zM137 556h-87v90h87v-90z" />
    <glyph glyph-name="ring" unicode="&#x2da;" horiz-adv-x="310" 
d="M260 807c0 -58 -47 -105 -105 -105s-105 47 -105 105s47 105 105 105s105 -47 105 -105zM197 807c0 23 -19 42 -42 42s-42 -19 -42 -42s19 -42 42 -42s42 19 42 42z" />
    <glyph glyph-name="cedilla" unicode="&#xb8;" horiz-adv-x="298" 
d="M248 -103c0 -59 -58 -83 -108 -83c-34 0 -54 4 -90 18l22 54c16 -10 45 -16 65 -16c16 0 50 3 50 27c0 15 -18 25 -46 25h-60l24 82h54l1 -37c51 0 88 -21 88 -70z" />
    <glyph glyph-name="hungarumlaut" unicode="&#x2dd;" horiz-adv-x="394" 
d="M344 811l-48 50c-18 -27 -31 -35 -44 -35c-14 0 -32 12 -44 18c-17 10 -37 20 -63 20c-39 0 -81 -30 -95 -69l54 -46c16 27 35 31 49 31c17 0 32 -9 46 -17c16 -9 33 -18 55 -18c39 0 72 23 90 66z" />
    <glyph glyph-name="caron" unicode="&#x2c7;" horiz-adv-x="405" 
d="M355 870l-100 -150c-27 -40 -78 -42 -105 -1l-100 151h78l75 -86l75 86h77z" />
    <glyph glyph-name="emdash" unicode="&#x2014;" horiz-adv-x="467" 
d="M417 352v-91h-367v91h367z" />
    <glyph glyph-name="AE" unicode="&#xc6;" horiz-adv-x="767" 
d="M732 90l-13 -90h-373v215h-146l-76 -215h-114l263 680h457l-13 -88h-300l31 -19v-174h222v-88h-222v-221h284zM346 305v327l-115 -327h115z" />
    <glyph glyph-name="ordfeminine" unicode="&#xaa;" horiz-adv-x="355" 
d="M281 364h-41l-14 9c-17 -9 -55 -15 -73 -15c-50 0 -100 27 -101 93v34c0 62 53 93 100 94h55v16c0 29 -17 32 -39 32c-21 0 -52 -5 -78 -15l-17 63c38 11 70 16 101 16c57 0 107 -26 107 -88v-239zM207 515h-45c-34 0 -36 -21 -37 -41v-24c0 -45 65 -30 82 -17v82z
M305 231h-255v67h255v-67z" />
    <glyph glyph-name="Oslash" unicode="&#xd8;" horiz-adv-x="489" 
d="M454 146c0 -106 -108 -156 -209 -156c-26 0 -53 3 -78 10l-27 -86l-34 11l27 87c-56 24 -98 68 -98 134v383c0 106 112 162 209 162c31 0 63 -5 93 -17l27 88l34 -11l-28 -92c49 -27 84 -70 84 -130v-383zM350 157v360c0 14 -5 27 -12 37l-144 -464c20 -6 40 -8 51 -8
c26 0 105 10 105 75zM308 581c-19 11 -41 17 -63 17c-49 0 -106 -32 -106 -81v-360c0 -22 10 -38 23 -49z" />
    <glyph glyph-name="OE" unicode="&#x152;" horiz-adv-x="773" 
d="M738 91l-13 -91h-373v10c-33 -13 -70 -20 -107 -20c-101 0 -210 50 -210 156v383c0 106 112 162 209 162c36 0 74 -7 108 -23v13h384l-13 -90h-283l14 -21v-170h222v-89h-222l1 -220h283zM350 157v360c0 49 -56 81 -105 81s-106 -32 -106 -81v-360c0 -65 80 -75 106 -75
s105 10 105 75z" />
    <glyph glyph-name="ordmasculine" unicode="&#xba;" horiz-adv-x="355" 
d="M295 459c0 -72 -55 -100 -119 -100c-65 0 -119 28 -119 100v134c0 72 54 99 119 99c64 0 119 -26 119 -99v-134zM222 457v135c0 24 -21 34 -46 34c-26 0 -47 -10 -47 -34v-135c0 -24 21 -34 47 -34c25 0 46 10 46 34zM305 231h-255v67h255v-67z" />
    <glyph glyph-name="ae" unicode="&#xe6;" horiz-adv-x="691" 
d="M656 328v-107h-261v-83c6 -34 29 -55 99 -55c37 0 83 13 127 34l26 -93c-52 -24 -117 -34 -163 -34c-57 0 -108 10 -144 38c-48 -28 -97 -38 -149 -38c-83 0 -156 25 -156 144v37c0 98 84 143 158 143l97 -1v33c0 56 -46 62 -84 62c-47 0 -89 -13 -110 -23l-24 86
c39 16 101 30 150 30s94 -12 126 -36c32 24 76 36 127 36c148 0 181 -79 181 -173zM555 313l-1 33c0 44 -31 71 -82 71c-46 0 -77 -36 -77 -69v-35h160zM290 102v120l-81 -1c-48 0 -68 -21 -68 -60v-31c-1 -76 108 -54 149 -28z" />
    <glyph glyph-name="dotlessi" unicode="&#x131;" horiz-adv-x="203" 
d="M153 0h-103v491h103v-491z" />
    <glyph glyph-name="oslash" unicode="&#xf8;" horiz-adv-x="450" 
d="M415 152c0 -116 -85 -162 -190 -162c-28 0 -55 3 -79 10l-36 -85l-33 14l36 84c-48 25 -78 69 -78 139v191c0 116 84 160 190 160c32 0 63 -4 90 -13l35 82l33 -14l-35 -83c41 -25 67 -67 67 -131v-192zM311 152v185c0 13 -3 24 -8 33l-119 -281c13 -4 27 -6 41 -6
c43 0 86 20 86 69zM275 396c-14 8 -32 12 -50 12c-45 0 -86 -23 -86 -71v-185c0 -18 5 -32 15 -42z" />
    <glyph glyph-name="oe" unicode="&#x153;" horiz-adv-x="713" 
d="M678 328v-107h-263v-58c0 -49 15 -80 101 -80c36 0 83 13 127 34l26 -93c-52 -24 -117 -34 -163 -34c-57 0 -109 10 -145 39c-35 -27 -83 -39 -136 -39c-106 0 -190 46 -190 162v191c0 116 84 160 190 160c55 0 105 -12 140 -40c32 27 78 40 132 40
c148 0 181 -81 181 -175zM577 313l-1 35c0 44 -30 71 -81 71c-50 0 -81 -34 -81 -78l1 -28h162zM311 152v185c0 48 -42 71 -86 71c-45 0 -86 -23 -86 -71v-185c0 -49 42 -69 86 -69c43 0 86 20 86 69z" />
    <glyph glyph-name="germandbls" unicode="&#xdf;" horiz-adv-x="479" 
d="M444 150c0 -99 -82 -160 -201 -160v96c59 0 96 28 96 90v60c0 62 -49 82 -97 82h-41v91c77 0 109 39 109 76v36c0 53 -41 78 -79 78c-40 0 -78 -29 -78 -81v-518h-103v519c0 116 77 172 181 172c105 0 182 -49 182 -166v-23c0 -33 -1 -94 -53 -128c69 -25 84 -88 84 -129
v-95z" />
    <glyph glyph-name="minus" unicode="&#x2212;" horiz-adv-x="367" 
d="M317 352v-91h-267v91h267z" />
    <glyph glyph-name="Adieresis" unicode="&#xc4;" horiz-adv-x="511" 
d="M486 78v-78h-91l-60 215h-166l-55 -215h-104l188 680h105zM309 307l-52 186v73l-65 -259h117zM379 749h-87v90h87v-90zM219 749h-87v90h87v-90z" />
    <glyph glyph-name="Aring" unicode="&#xc5;" horiz-adv-x="511" 
d="M486 78v-78h-91l-60 215h-166l-55 -215h-104l188 680h105zM309 307l-52 186v73l-65 -259h117zM359 807c0 -58 -47 -105 -105 -105s-105 47 -105 105s47 105 105 105s105 -47 105 -105zM296 807c0 23 -19 42 -42 42s-42 -19 -42 -42s19 -42 42 -42s42 19 42 42z" />
    <glyph glyph-name="Ccedilla" unicode="&#xc7;" horiz-adv-x="439" 
d="M419 27c-64 -28 -132 -37 -170 -37l1 -23c51 0 88 -21 88 -70c0 -59 -58 -83 -108 -83c-34 0 -54 4 -90 18l22 54c16 -10 45 -16 65 -16c16 0 50 3 50 27c0 15 -18 25 -46 25h-60l21 71c-85 11 -157 53 -157 156v356c0 122 100 186 210 186c57 0 107 -12 164 -39l-37 -89
c-32 18 -81 34 -117 34c-65 0 -116 -29 -116 -95v-346c0 -47 32 -76 109 -76c29 0 81 8 145 38z" />
    <glyph glyph-name="Eacute" unicode="&#xc9;" horiz-adv-x="471" 
d="M436 91l-13 -91h-373v681h384l-13 -90h-296l27 -21v-170h222v-89h-222v-220h284zM359 888l-131 -152h-78l100 152h109z" />
    <glyph glyph-name="Ntilde" unicode="&#xd1;" horiz-adv-x="597" 
d="M547 680v-680h-99l-317 525l18 -84v-441h-99l1 680h87l324 -525l-16 85v440h101zM444 811c-18 -43 -51 -66 -90 -66c-22 0 -39 9 -55 18c-14 8 -29 17 -46 17c-14 0 -33 -4 -49 -31l-54 46c14 39 56 69 95 69c26 0 46 -10 63 -20c12 -6 30 -18 44 -18c13 0 26 8 44 35z
" />
    <glyph glyph-name="Odieresis" unicode="&#xd6;" horiz-adv-x="489" 
d="M454 146c0 -106 -108 -156 -209 -156s-210 50 -210 156v383c0 106 112 162 209 162s210 -56 210 -162v-383zM350 157v360c0 49 -56 81 -105 81s-106 -32 -106 -81v-360c0 -65 80 -75 106 -75s105 10 105 75zM369 749h-87v90h87v-90zM209 749h-87v90h87v-90z" />
    <glyph glyph-name="Udieresis" unicode="&#xdc;" horiz-adv-x="520" 
d="M470 681l-1 -533c0 -106 -108 -158 -209 -158s-210 52 -210 158v534h104v-520c0 -65 80 -80 106 -80s108 15 108 80l1 519h101zM379 749h-87v90h87v-90zM219 749h-87v90h87v-90z" />
    <glyph glyph-name="aacute" unicode="&#xe1;" 
d="M395 0h-56l-27 17c-46 -23 -92 -27 -121 -27c-83 0 -156 25 -156 144v37c0 98 84 143 158 143l97 -1v35c0 56 -46 62 -84 62c-47 0 -89 -13 -110 -23l-24 86c39 16 101 30 150 30c94 0 173 -42 173 -141v-362zM290 102v120l-81 -1c-48 0 -68 -21 -68 -60v-31
c-1 -76 108 -54 149 -28zM349 688l-131 -152h-78l100 152h109z" />
    <glyph glyph-name="agrave" unicode="&#xe0;" 
d="M395 0h-56l-27 17c-46 -23 -92 -27 -121 -27c-83 0 -156 25 -156 144v37c0 98 84 143 158 143l97 -1v35c0 56 -46 62 -84 62c-47 0 -89 -13 -110 -23l-24 86c39 16 101 30 150 30c94 0 173 -42 173 -141v-362zM290 102v120l-81 -1c-48 0 -68 -21 -68 -60v-31
c-1 -76 108 -54 149 -28zM319 537l-78 -1l-131 152h109z" />
    <glyph glyph-name="acircumflex" unicode="&#xe2;" 
d="M395 0h-56l-27 17c-46 -23 -92 -27 -121 -27c-83 0 -156 25 -156 144v37c0 98 84 143 158 143l97 -1v35c0 56 -46 62 -84 62c-47 0 -89 -13 -110 -23l-24 86c39 16 101 30 150 30c94 0 173 -42 173 -141v-362zM290 102v120l-81 -1c-48 0 -68 -21 -68 -60v-31
c-1 -76 108 -54 149 -28zM375 537l-77 -1l-75 87l-75 -87h-78l100 152h105z" />
    <glyph glyph-name="adieresis" unicode="&#xe4;" 
d="M395 0h-56l-27 17c-46 -23 -92 -27 -121 -27c-83 0 -156 25 -156 144v37c0 98 84 143 158 143l97 -1v35c0 56 -46 62 -84 62c-47 0 -89 -13 -110 -23l-24 86c39 16 101 30 150 30c94 0 173 -42 173 -141v-362zM290 102v120l-81 -1c-48 0 -68 -21 -68 -60v-31
c-1 -76 108 -54 149 -28zM347 556h-87v90h87v-90zM187 556h-87v90h87v-90z" />
    <glyph glyph-name="atilde" unicode="&#xe3;" 
d="M395 0h-56l-27 17c-46 -23 -92 -27 -121 -27c-83 0 -156 25 -156 144v37c0 98 84 143 158 143l97 -1v35c0 56 -46 62 -84 62c-47 0 -89 -13 -110 -23l-24 86c39 16 101 30 150 30c94 0 173 -42 173 -141v-362zM290 102v120l-81 -1c-48 0 -68 -21 -68 -60v-31
c-1 -76 108 -54 149 -28zM374 621c-18 -43 -51 -66 -90 -66c-22 0 -39 9 -55 18c-14 8 -29 17 -46 17c-14 0 -33 -4 -49 -31l-54 46c14 39 56 69 95 69c26 0 46 -10 63 -20c12 -6 30 -18 44 -18c13 0 26 8 44 35z" />
    <glyph glyph-name="aring" unicode="&#xe5;" 
d="M395 0h-56l-27 17c-46 -23 -92 -27 -121 -27c-83 0 -156 25 -156 144v37c0 98 84 143 158 143l97 -1v35c0 56 -46 62 -84 62c-47 0 -89 -13 -110 -23l-24 86c39 16 101 30 150 30c94 0 173 -42 173 -141v-362zM290 102v120l-81 -1c-48 0 -68 -21 -68 -60v-31
c-1 -76 108 -54 149 -28zM338 637c0 -58 -47 -105 -105 -105s-105 47 -105 105s47 105 105 105s105 -47 105 -105zM275 637c0 23 -19 42 -42 42s-42 -19 -42 -42s19 -42 42 -42s42 19 42 42z" />
    <glyph glyph-name="ccedilla" unicode="&#xe7;" horiz-adv-x="409" 
d="M379 19c-53 -20 -105 -29 -151 -29v-23c51 0 90 -21 90 -70c0 -59 -55 -80 -105 -80c-34 0 -57 4 -95 15l12 54c20 -9 53 -15 73 -15c16 0 52 2 52 26c0 15 -17 25 -46 25h-60l21 72c-78 12 -135 54 -135 154v177c0 124 82 176 187 176c52 0 115 -16 153 -34l-37 -93
c-80 34 -199 48 -199 -56v-144c0 -126 161 -83 216 -59z" />
    <glyph glyph-name="eacute" unicode="&#xe9;" horiz-adv-x="435" 
d="M400 328v-107h-263v-58c0 -49 15 -80 101 -80c36 0 83 13 127 34l26 -93c-52 -24 -117 -34 -163 -34c-105 0 -193 33 -193 157v191c0 111 75 165 184 165c148 0 181 -81 181 -175zM299 313l-1 35c0 44 -28 71 -79 71c-49 0 -83 -26 -82 -71v-35h162zM339 688h-109
l-100 -152h78z" />
    <glyph glyph-name="egrave" unicode="&#xe8;" horiz-adv-x="435" 
d="M400 328v-107h-263v-58c0 -49 15 -80 101 -80c36 0 83 13 127 34l26 -93c-52 -24 -117 -34 -163 -34c-105 0 -193 33 -193 157v191c0 111 75 165 184 165c148 0 181 -81 181 -175zM299 313l-1 35c0 44 -28 71 -79 71c-49 0 -83 -26 -82 -71v-35h162zM329 537l-100 151
h-109l131 -151h78z" />
    <glyph glyph-name="ecircumflex" unicode="&#xea;" horiz-adv-x="435" 
d="M400 328v-107h-263v-58c0 -49 15 -80 101 -80c36 0 83 13 127 34l26 -93c-52 -24 -117 -34 -163 -34c-105 0 -193 33 -193 157v191c0 111 75 165 184 165c148 0 181 -81 181 -175zM299 313l-1 35c0 44 -28 71 -79 71c-49 0 -83 -26 -82 -71v-35h162zM373 537l-100 151
h-105l-100 -152h78l75 87l75 -86h77z" />
    <glyph glyph-name="edieresis" unicode="&#xeb;" horiz-adv-x="435" 
d="M400 328v-107h-263v-58c0 -49 15 -80 101 -80c36 0 83 13 127 34l26 -93c-52 -24 -117 -34 -163 -34c-105 0 -193 33 -193 157v191c0 111 75 165 184 165c148 0 181 -81 181 -175zM299 313l-1 35c0 44 -28 71 -79 71c-49 0 -83 -26 -82 -71v-35h162zM338 556v90h-87v-90
h87zM178 556v90h-87v-90h87z" />
    <glyph glyph-name="iacute" unicode="&#xed;" horiz-adv-x="197" 
d="M208 688h-109l-100 -152h78zM152 0v491h-103v-491h103z" />
    <glyph glyph-name="igrave" unicode="&#xec;" horiz-adv-x="198" 
d="M206 537l-100 151h-109l131 -151h78zM150 0v491h-103v-491h103z" />
    <glyph glyph-name="icircumflex" unicode="&#xee;" horiz-adv-x="196" 
d="M250 537l-100 151h-105l-100 -152h78l75 87l75 -86h77zM152 0v491h-103v-491h103z" />
    <glyph glyph-name="idieresis" unicode="&#xef;" horiz-adv-x="198" 
d="M219 556v90h-87v-90h87zM59 556v90h-87v-90h87zM150 0v491h-103v-491h103z" />
    <glyph glyph-name="ntilde" unicode="&#xf1;" horiz-adv-x="472" 
d="M422 0h-104l1 357c0 86 -126 46 -167 12v-369h-102v491h65l27 -29c30 19 85 39 128 39c83 0 152 -22 152 -142v-359zM394 621c-18 -43 -51 -66 -90 -66c-22 0 -39 9 -55 18c-14 8 -29 17 -46 17c-14 0 -33 -4 -49 -31l-54 46c14 39 56 69 95 69c26 0 46 -10 63 -20
c12 -6 30 -18 44 -18c13 0 26 8 44 35z" />
    <glyph glyph-name="oacute" unicode="&#xf3;" horiz-adv-x="450" 
d="M415 152c0 -116 -85 -162 -190 -162c-106 0 -190 46 -190 162v191c0 116 84 160 190 160c105 0 190 -43 190 -159v-192zM311 152v185c0 48 -42 71 -86 71c-45 0 -86 -23 -86 -71v-185c0 -49 42 -69 86 -69c43 0 86 20 86 69zM359 688l-131 -152h-78l100 152h109z" />
    <glyph glyph-name="ograve" unicode="&#xf2;" horiz-adv-x="450" 
d="M415 152c0 -116 -85 -162 -190 -162c-106 0 -190 46 -190 162v191c0 116 84 160 190 160c105 0 190 -43 190 -159v-192zM311 152v185c0 48 -42 71 -86 71c-45 0 -86 -23 -86 -71v-185c0 -49 42 -69 86 -69c43 0 86 20 86 69zM319 537l-78 -1l-131 152h109z" />
    <glyph glyph-name="ocircumflex" unicode="&#xf4;" horiz-adv-x="450" 
d="M415 152c0 -116 -85 -162 -190 -162c-106 0 -190 46 -190 162v191c0 116 84 160 190 160c105 0 190 -43 190 -159v-192zM311 152v185c0 48 -42 71 -86 71c-45 0 -86 -23 -86 -71v-185c0 -49 42 -69 86 -69c43 0 86 20 86 69zM375 537l-77 -1l-75 87l-75 -87h-78l100 152
h105z" />
    <glyph glyph-name="odieresis" unicode="&#xf6;" horiz-adv-x="450" 
d="M415 152c0 -116 -85 -162 -190 -162c-106 0 -190 46 -190 162v191c0 116 84 160 190 160c105 0 190 -43 190 -159v-192zM311 152v185c0 48 -42 71 -86 71c-45 0 -86 -23 -86 -71v-185c0 -49 42 -69 86 -69c43 0 86 20 86 69zM351 556h-87v90h87v-90zM191 556h-87v90h87
v-90z" />
    <glyph glyph-name="otilde" unicode="&#xf5;" horiz-adv-x="450" 
d="M415 152c0 -116 -85 -162 -190 -162c-106 0 -190 46 -190 162v191c0 116 84 160 190 160c105 0 190 -43 190 -159v-192zM311 152v185c0 48 -42 71 -86 71c-45 0 -86 -23 -86 -71v-185c0 -49 42 -69 86 -69c43 0 86 20 86 69zM374 621c-18 -43 -51 -66 -90 -66
c-22 0 -39 9 -55 18c-14 8 -29 17 -46 17c-14 0 -33 -4 -49 -31l-54 46c14 39 56 69 95 69c26 0 46 -10 63 -20c12 -6 30 -18 44 -18c13 0 26 8 44 35z" />
    <glyph glyph-name="uacute" unicode="&#xfa;" horiz-adv-x="463" 
d="M413 0h-57l-26 16c-46 -22 -96 -26 -125 -26c-84 0 -155 33 -155 151v350l104 1v-348c0 -80 86 -73 156 -41v388h103v-491zM359 688l-131 -152h-78l100 152h109z" />
    <glyph glyph-name="ugrave" unicode="&#xf9;" horiz-adv-x="463" 
d="M413 0h-57l-26 16c-46 -22 -96 -26 -125 -26c-84 0 -155 33 -155 151v350l104 1v-348c0 -80 86 -73 156 -41v388h103v-491zM329 537l-78 -1l-131 152h109z" />
    <glyph glyph-name="ucircumflex" unicode="&#xfb;" horiz-adv-x="463" 
d="M413 0h-57l-26 16c-46 -22 -96 -26 -125 -26c-84 0 -155 33 -155 151v350l104 1v-348c0 -80 86 -73 156 -41v388h103v-491zM385 537l-77 -1l-75 87l-75 -87h-78l100 152h105z" />
    <glyph glyph-name="udieresis" unicode="&#xfc;" horiz-adv-x="463" 
d="M413 0h-57l-26 16c-46 -22 -96 -26 -125 -26c-84 0 -155 33 -155 151v350l104 1v-348c0 -80 86 -73 156 -41v388h103v-491zM352 556h-87v90h87v-90zM192 556h-87v90h87v-90z" />
    <glyph glyph-name="degree" unicode="&#xb0;" horiz-adv-x="310" 
d="M260 637c0 58 -47 105 -105 105s-105 -47 -105 -105s47 -105 105 -105s105 47 105 105zM197 637c0 -23 -19 -42 -42 -42s-42 19 -42 42s19 42 42 42s42 -19 42 -42z" />
    <glyph glyph-name="registered" unicode="&#xae;" horiz-adv-x="815" 
d="M765 341c0 -193 -160 -350 -357 -350c-198 0 -358 157 -358 350s160 350 358 350c197 0 357 -157 357 -350zM678 341c0 149 -119 270 -270 270c-152 0 -275 -121 -275 -270s121 -270 273 -270s272 121 272 270zM574 171l-7 -11h-85l-94 113h-16v-113h-87v354h150
c62 0 116 -43 116 -113v-21c1 -46 -37 -92 -77 -97zM460 380v20c0 29 -32 37 -50 37h-38v-101h41c20 0 47 15 47 44z" />
    <glyph glyph-name="copyright" unicode="&#xa9;" horiz-adv-x="815" 
d="M765 341c0 -193 -160 -350 -357 -350c-198 0 -358 157 -358 350s160 350 358 350c197 0 357 -157 357 -350zM683 341c0 149 -124 270 -275 270c-152 0 -275 -121 -275 -270s123 -270 275 -270c151 0 275 121 275 270zM526 192c-53 -29 -86 -36 -127 -36
c-59 0 -132 31 -132 110v144c0 76 74 116 136 116c46 0 78 -11 119 -29l-29 -78c-49 30 -142 47 -142 -33v-107c0 -27 23 -44 56 -44c28 0 64 15 94 35z" />
    <glyph glyph-name="trademark" unicode="&#x2122;" horiz-adv-x="851" 
d="M801 514v-354h-88v153l-92 -121h-64l-93 141v-173h-84v354h82l132 -215l139 215h68zM338 439h-99v-279h-88v279h-101v75h288v-75z" />
    <glyph glyph-name="notequal" unicode="&#x2260;" horiz-adv-x="596" 
d="M546 153h-272l-58 -153h-106l59 153h-119v90h154l48 126h-202v91h237l66 172h104l-66 -172h155v-91h-189l-48 -126h237v-90z" />
    <glyph glyph-name="infinity" unicode="&#x221e;" horiz-adv-x="857" 
d="M807 337c0 -119 -105 -172 -179 -172c-85 0 -144 60 -202 111c-58 -52 -115 -112 -202 -112c-64 0 -174 35 -174 165c0 123 103 173 180 173c82 0 146 -62 203 -111c58 52 114 112 201 112c64 0 173 -36 173 -166zM708 336c0 44 -38 78 -81 78c-50 0 -96 -47 -130 -78
c33 -29 86 -79 130 -79c54 0 81 44 81 79zM360 330l-31 27c-27 24 -60 52 -99 52c-54 0 -81 -44 -81 -79c0 -44 39 -78 81 -78c48 0 97 48 130 78z" />
    <glyph glyph-name="plusminus" unicode="&#xb1;" horiz-adv-x="546" 
d="M496 261h-177v-178h-92v178h-177v91h177v178h92v-178h177v-91zM496 -51v-91h-446v91h446z" />
    <glyph glyph-name="lessequal" unicode="&#x2264;" horiz-adv-x="546" 
d="M416 63h-133l-210 192v44l210 192h133l-219 -214zM496 -142h-446v91h446v-91z" />
    <glyph glyph-name="greaterequal" unicode="&#x2265;" horiz-adv-x="546" 
d="M474 255l-211 -192h-132l219 214l-219 214h132l211 -192v-44zM496 -51v-91h-446v91h446z" />
    <glyph glyph-name="mu" unicode="&#xb5;" horiz-adv-x="463" 
d="M413 0h-57l-26 16c-46 -22 -96 -26 -125 -26c-18 0 -35 1 -51 5v-110h-104v606l104 1v-348c0 -80 86 -73 156 -41v388h103v-491z" />
    <glyph glyph-name="partialdiff" unicode="&#x2202;" horiz-adv-x="492" 
d="M442 517v-366c-1 -119 -97 -161 -200 -161c-104 0 -192 45 -192 161v140c0 117 72 179 175 179c51 0 89 -15 112 -27c1 82 17 158 -102 158c-33 0 -86 -14 -126 -35l-34 87c56 27 123 39 170 39c108 0 197 -51 197 -175zM337 341c-6 3 -13 7 -19 11c-32 18 -59 23 -97 23
s-69 -29 -69 -71v-157c0 -50 47 -67 90 -67c41 0 95 16 95 67v194z" />
    <glyph glyph-name="summation" unicode="&#x2211;" horiz-adv-x="538" 
d="M488 90v-90h-438v78l226 275l-221 248v81h427l-32 -90h-256l210 -237l-219 -265h303z" />
    <glyph glyph-name="product" unicode="&#x220f;" horiz-adv-x="711" 
d="M661 0h-246v91h70v501h-258v-501h70v-91h-247v91h73v502h-73v89h611v-89h-72v-502h72v-91z" />
    <glyph glyph-name="pi" unicode="&#x3c0;" horiz-adv-x="587" 
d="M537 400h-67l-1 -278c0 -29 25 -50 59 -57l-42 -75c-72 0 -120 42 -121 140v270h-145v-400h-104v400h-66v91h487v-91z" />
    <glyph glyph-name="integral" unicode="&#x222b;" horiz-adv-x="553" 
d="M503 712l-31 -95c-31 21 -68 30 -92 25c-22 -5 -44 -23 -50 -57l-112 -607l-93 -141l-75 42l73 133l102 575c16 90 65 143 139 155c46 7 105 -9 139 -30z" />
    <glyph glyph-name="Omega" unicode="&#x3a9;" horiz-adv-x="795" 
d="M745 356c0 -85 -28 -184 -119 -261h95l-14 -95h-248l-24 99c140 41 211 145 211 257c0 139 -111 242 -248 242c-138 0 -249 -103 -249 -242c0 -112 72 -216 212 -257l-25 -99h-248l-13 95h94c-88 76 -119 176 -119 261c0 193 158 335 348 335c189 0 347 -142 347 -335z
" />
    <glyph glyph-name="logicalnot" unicode="&#xac;" horiz-adv-x="467" 
d="M417 352v-207h-103v116h-264v91h367z" />
    <glyph glyph-name="radical" unicode="&#x221a;" horiz-adv-x="596" 
d="M546 601l-167 -601h-89l-140 408h-99l-1 82h184l91 -269v-67l144 578h77v-131z" />
    <glyph glyph-name="approxequal" unicode="&#x2248;" horiz-adv-x="687" 
d="M722 719l-19 -89c-86 37 -150 29 -150 -49v-90h130l-12 -95h-118v-396h-104v396h-256v-396h-104v396h-89v95h89v94c0 66 19 157 161 157c22 0 67 -6 112 -23l-19 -89c-86 37 -150 29 -150 -49v-90h256v94c0 66 19 157 161 157c22 0 67 -6 112 -23z" />
    <glyph glyph-name="Delta" unicode="&#x394;" horiz-adv-x="796" 
d="M746 0h-696l302 682h88zM596 91l-200 481l-198 -481h398z" />
    <glyph glyph-name="nbspace" unicode="&#xa0;" horiz-adv-x="250" 
 />
    <glyph glyph-name="Agrave" unicode="&#xc0;" horiz-adv-x="511" 
d="M486 78l-183 602h-105l-188 -680h104l55 215h166l60 -215h91v78zM309 307h-117l65 259v-73zM149 888h109l100 -152h-78z" />
    <glyph glyph-name="Atilde" unicode="&#xc3;" horiz-adv-x="511" 
d="M486 78v-78h-91l-60 215h-166l-55 -215h-104l188 680h105zM309 307l-52 186v73l-65 -259h117zM404 811c-18 -43 -51 -66 -90 -66c-22 0 -39 9 -55 18c-14 8 -29 17 -46 17c-14 0 -33 -4 -49 -31l-54 46c14 39 56 69 95 69c26 0 46 -10 63 -20c12 -6 30 -18 44 -18
c13 0 26 8 44 35z" />
    <glyph glyph-name="Otilde" unicode="&#xd5;" horiz-adv-x="489" 
d="M454 146c0 -106 -108 -156 -209 -156s-210 50 -210 156v383c0 106 112 162 209 162s210 -56 210 -162v-383zM350 157v360c0 49 -56 81 -105 81s-106 -32 -106 -81v-360c0 -65 80 -75 106 -75s105 10 105 75zM404 811c-18 -43 -51 -66 -90 -66c-22 0 -39 9 -55 18
c-14 8 -29 17 -46 17c-14 0 -33 -4 -49 -31l-54 46c14 39 56 69 95 69c26 0 46 -10 63 -20c12 -6 30 -18 44 -18c13 0 26 8 44 35z" />
    <glyph glyph-name="divide" unicode="&#xf7;" horiz-adv-x="526" 
d="M317 429h-102v102h102v-102zM476 352v-91h-426v91h426zM317 80h-102v102h102v-102z" />
    <glyph glyph-name="lozenge" unicode="&#x25ca;" horiz-adv-x="537" 
d="M487 457l-80 -80c12 -29 15 -47 15 -65c0 -22 -5 -42 -19 -74l84 -84l-67 -66l-86 85c-29 -11 -46 -14 -65 -14c-18 0 -36 3 -65 15l-86 -86l-67 66l84 85c-14 31 -18 51 -18 73c0 18 3 35 14 64l-81 81l67 67l79 -79c32 15 52 19 73 19c22 0 42 -4 73 -18l79 78z
M327 312c0 31 -26 57 -58 57c-31 0 -57 -26 -57 -57c0 -32 26 -58 57 -58c32 0 58 26 58 58z" />
    <glyph glyph-name="ydieresis" unicode="&#xff;" horiz-adv-x="410" 
d="M410 491l-194 -671h-96l50 180h-24l-146 491h116l82 -299v-96l107 396zM312 556h-87v90h87v-90zM152 556h-87v90h87v-90z" />
    <glyph glyph-name="Ydieresis" unicode="&#x178;" horiz-adv-x="446" 
d="M446 681l-162 -419l1 -262h-105l-1 262l-179 419h119l103 -260l1 -46l113 305zM349 749h-87v90h87v-90zM189 749h-87v90h87v-90z" />
    <glyph glyph-name="Acircumflex" unicode="&#xc2;" horiz-adv-x="511" 
d="M486 78v-78h-91l-60 215h-166l-55 -215h-104l188 680h105zM309 307l-52 186v73l-65 -259h117zM405 719h-77l-75 86l-75 -86h-78l100 151h105z" />
    <glyph glyph-name="Ecircumflex" unicode="&#xca;" horiz-adv-x="471" 
d="M436 91l-13 -91h-373v681h384l-13 -90h-296l27 -21v-170h222v-89h-222v-220h284zM395 719h-77l-75 86l-75 -86h-78l100 151h105z" />
    <glyph glyph-name="Aacute" unicode="&#xc1;" horiz-adv-x="511" 
d="M486 78v-78h-91l-60 215h-166l-55 -215h-104l188 680h105zM309 307l-52 186v73l-65 -259h117zM379 888l-131 -152h-78l100 152h109z" />
    <glyph glyph-name="Edieresis" unicode="&#xcb;" horiz-adv-x="471" 
d="M436 91l-13 -91h-373v681h384l-13 -90h-296l27 -21v-170h222v-89h-222v-220h284zM359 749h-87v90h87v-90zM199 749h-87v90h87v-90z" />
    <glyph glyph-name="Egrave" unicode="&#xc8;" horiz-adv-x="472" 
d="M436 91h-284v220h222v89h-222v170l-27 21h296l13 90h-384v-681h373zM129 888h109l100 -152h-78z" />
    <glyph glyph-name="Iacute" unicode="&#xcd;" horiz-adv-x="387" 
d="M347 0h-306v91h101v501h-102v90h307v-90h-100v-501h100v-91zM309 888l-131 -152h-78l100 152h109z" />
    <glyph glyph-name="Icircumflex" unicode="&#xce;" horiz-adv-x="387" 
d="M347 0h-306v91h101v501h-102v90h307v-90h-100v-501h100v-91zM345 719h-77l-75 86l-75 -86h-78l100 151h105z" />
    <glyph glyph-name="Idieresis" unicode="&#xcf;" horiz-adv-x="387" 
d="M347 0h-306v91h101v501h-102v90h307v-90h-100v-501h100v-91zM319 749h-87v90h87v-90zM159 749h-87v90h87v-90z" />
    <glyph glyph-name="Igrave" unicode="&#xcc;" horiz-adv-x="387" 
d="M347 0v91h-100v501h100v90h-307v-90h102v-501h-101v-91h306zM79 888h109l100 -152h-78z" />
    <glyph glyph-name="Oacute" unicode="&#xd3;" horiz-adv-x="489" 
d="M454 146c0 -106 -108 -156 -209 -156s-210 50 -210 156v383c0 106 112 162 209 162s210 -56 210 -162v-383zM350 157v360c0 49 -56 81 -105 81s-106 -32 -106 -81v-360c0 -65 80 -75 106 -75s105 10 105 75zM379 888l-131 -152h-78l100 152h109z" />
    <glyph glyph-name="Ocircumflex" unicode="&#xd4;" horiz-adv-x="489" 
d="M454 146c0 -106 -108 -156 -209 -156s-210 50 -210 156v383c0 106 112 162 209 162s210 -56 210 -162v-383zM350 157v360c0 49 -56 81 -105 81s-106 -32 -106 -81v-360c0 -65 80 -75 106 -75s105 10 105 75zM412 719h-77l-75 86l-75 -86h-78l100 151h105z" />
    <glyph glyph-name="Ograve" unicode="&#xd2;" horiz-adv-x="489" 
d="M454 146v383c0 106 -113 162 -210 162s-209 -56 -209 -162v-383c0 -106 109 -156 210 -156s209 50 209 156zM350 157c0 -65 -79 -75 -105 -75s-106 10 -106 75v360c0 49 57 81 106 81s105 -32 105 -81v-360zM149 888h109l100 -152h-78z" />
    <glyph glyph-name="Uacute" unicode="&#xda;" horiz-adv-x="520" 
d="M470 681l-1 -533c0 -106 -108 -158 -209 -158s-210 52 -210 158v534h104v-520c0 -65 80 -80 106 -80s108 15 108 80l1 519h101zM379 888l-131 -152h-78l100 152h109z" />
    <glyph glyph-name="Ucircumflex" unicode="&#xdb;" horiz-adv-x="520" 
d="M470 681l-1 -533c0 -106 -108 -158 -209 -158s-210 52 -210 158v534h104v-520c0 -65 80 -80 106 -80s108 15 108 80l1 519h101zM408 719h-77l-75 86l-75 -86h-78l100 151h105z" />
    <glyph glyph-name="Ugrave" unicode="&#xd9;" horiz-adv-x="520" 
d="M470 681h-101l-1 -519c0 -65 -82 -80 -108 -80s-106 15 -106 80v520h-104v-534c0 -106 109 -158 210 -158s209 52 209 158zM149 888h109l100 -152h-78z" />
    <glyph glyph-name="brokenbar" unicode="&#xa6;" horiz-adv-x="204" 
d="M154 303h-104v378h104v-378zM154 0h-104v231h104v-231z" />
    </font>
</defs>
</svg>
